<svg xmlns="http://www.w3.org/2000/svg" xmlns:xlink="http://www.w3.org/1999/xlink" viewBox="0 0 782.43 307.44"><defs><style>.cls-1{isolation:isolate;}.cls-2,.cls-3{fill:#58595b;}.cls-3{stroke:#030303;stroke-miterlimit:10;}.cls-13,.cls-4{font-size:12.65px;font-family:Gotham-Book, Gotham;}.cls-12,.cls-16,.cls-4,.cls-8{fill:#010101;}.cls-5{letter-spacing:-0.02em;}.cls-6{letter-spacing:-0.02em;}.cls-7{letter-spacing:-0.01em;}.cls-8{font-size:20px;font-family:Gotham-Bold, Gotham;font-weight:700;}.cls-9{letter-spacing:-0.05em;}.cls-10{fill:#fff;}.cls-11{fill:#d7d6d6;}.cls-13{fill:#231f20;}.cls-14,.cls-21,.cls-23,.cls-29,.cls-42{mix-blend-mode:multiply;}.cls-14{fill:url(#radial-gradient);}.cls-15{fill:#a31e22;}.cls-16{font-size:14px;font-family:Gotham-Medium, Gotham;font-weight:500;}.cls-17{letter-spacing:-0.05em;}.cls-18{letter-spacing:-0.09em;}.cls-19{letter-spacing:-0.02em;}.cls-20{letter-spacing:-0.04em;}.cls-21{fill:url(#radial-gradient-2);}.cls-22{fill:#dc3c4b;}.cls-23{fill:url(#radial-gradient-3);}.cls-24{fill:#991b1e;}.cls-25{letter-spacing:-0.08em;}.cls-26{letter-spacing:-0.04em;}.cls-27{letter-spacing:0em;}.cls-28{letter-spacing:-0.02em;}.cls-29{fill:url(#radial-gradient-4);}.cls-30{fill:#ef382e;}.cls-31{letter-spacing:-0.04em;}.cls-32{letter-spacing:-0.01em;}.cls-33{letter-spacing:-0.01em;}.cls-34{letter-spacing:-0.04em;}.cls-35{mix-blend-mode:screen;}.cls-36{opacity:0.4;}.cls-37{fill:url(#linear-gradient);}.cls-38{opacity:0.6;}.cls-39{fill:url(#linear-gradient-2);}.cls-40{fill:url(#linear-gradient-3);}.cls-41{fill:url(#linear-gradient-4);}.cls-42{fill:url(#radial-gradient-5);}.cls-43{fill:#e5868d;}.cls-44{letter-spacing:-0.01em;}.cls-45{letter-spacing:-0.04em;}</style><radialGradient id="radial-gradient" cx="506.63" cy="187.52" r="45.11" gradientUnits="userSpaceOnUse"><stop offset="0.36" stop-color="#acc2d4"/><stop offset="0.44" stop-color="#bbcddc"/><stop offset="0.68" stop-color="#e0e8ef"/><stop offset="0.88" stop-color="#f7f9fb"/><stop offset="1" stop-color="#fff"/></radialGradient><radialGradient id="radial-gradient-2" cx="473.02" cy="109" r="45.11" xlink:href="#radial-gradient"/><radialGradient id="radial-gradient-3" cx="301.35" cy="138.72" r="45.11" gradientTransform="translate(76.02 -104.76) rotate(22.5)" xlink:href="#radial-gradient"/><radialGradient id="radial-gradient-4" cx="267.82" cy="220.63" r="45.11" gradientTransform="translate(234.46 -124.76) rotate(45)" xlink:href="#radial-gradient"/><linearGradient id="linear-gradient" x1="250.83" y1="211.72" x2="281.99" y2="211.72" gradientUnits="userSpaceOnUse"><stop offset="0" stop-color="#bdc8d4"/><stop offset="0.95" stop-color="#fff"/><stop offset="1" stop-color="#fff"/></linearGradient><linearGradient id="linear-gradient-2" x1="255.83" y1="212.36" x2="277.01" y2="212.36" xlink:href="#linear-gradient"/><linearGradient id="linear-gradient-3" x1="259.52" y1="224.22" x2="275.69" y2="224.22" xlink:href="#linear-gradient"/><linearGradient id="linear-gradient-4" x1="262.74" y1="214.36" x2="270.1" y2="214.36" xlink:href="#linear-gradient"/><radialGradient id="radial-gradient-5" cx="386.37" cy="72.8" r="45.11" xlink:href="#radial-gradient"/></defs><g class="cls-1"><g id="_0._base" data-name="0. base"><line class="cls-2" x1="115.22" y1="290.89" x2="15.75" y2="290.89"/><path class="cls-2" d="M121.38,324.89H21.91c-.74,0-1.34-.21-1.34-.48s.6-.48,1.34-.48h99.47c.74,0,1.33.22,1.33.48S122.12,324.89,121.38,324.89Z" transform="translate(-6.15 -33.52)"/><ellipse class="cls-2" cx="11.21" cy="290.89" rx="3.67" ry="3.76"/><path class="cls-2" d="M17.37,328.66a4.25,4.25,0,1,1,4.14-4.25A4.2,4.2,0,0,1,17.37,328.66Zm0-7.53a3.28,3.28,0,1,0,3.2,3.28A3.24,3.24,0,0,0,17.37,321.13Z" transform="translate(-6.15 -33.52)"/><line class="cls-3" y1="251.66" x2="782.43" y2="251.66"/><path class="cls-2" d="M215.65,323.45h91.52c.68,0,1.23.21,1.23.48s-.55.48-1.23.48H215.65c-.68,0-1.23-.22-1.23-.48S215,323.45,215.65,323.45Z" transform="translate(-6.15 -33.52)"/><circle class="cls-2" cx="311.68" cy="323.93" r="3.76" transform="translate(-64.14 546.18) rotate(-80.78)"/><path class="cls-2" d="M311.68,319.68a4.25,4.25,0,1,1-4.24,4.25A4.26,4.26,0,0,1,311.68,319.68Zm0,7.53a3.28,3.28,0,1,0-3.28-3.28A3.28,3.28,0,0,0,311.68,327.21Z" transform="translate(-6.15 -33.52)"/><line class="cls-2" x1="413.77" y1="290.89" x2="343.57" y2="290.89"/><path class="cls-2" d="M531.1,324.89H351.2c-1.34,0-2.42-.21-2.42-.48s1.08-.48,2.42-.48H531.1c1.34,0,2.43.21,2.43.48S532.44,324.89,531.1,324.89Z" transform="translate(-6.15 -33.52)"/><ellipse class="cls-2" cx="339.43" cy="290.89" rx="3.67" ry="3.76"/><path class="cls-2" d="M345.58,328.66a4.25,4.25,0,1,1,4.14-4.25A4.2,4.2,0,0,1,345.58,328.66Zm0-7.53a3.28,3.28,0,1,0,3.2,3.28A3.24,3.24,0,0,0,345.58,321.13Z" transform="translate(-6.15 -33.52)"/><line class="cls-2" x1="615.84" y1="290.42" x2="772.79" y2="290.42"/><path class="cls-2" d="M616.91,323.63h162c1.2,0,2.18.14,2.18.3s-1,.31-2.18.31h-162c-1.21,0-2.18-.14-2.18-.31S615.7,323.63,616.91,323.63Z" transform="translate(-6.15 -33.52)"/><circle class="cls-2" cx="784.34" cy="323.93" r="3.76" transform="translate(332.8 1012.74) rotate(-80.78)"/><path class="cls-2" d="M784.34,319.68a4.25,4.25,0,1,1-4.25,4.25A4.25,4.25,0,0,1,784.34,319.68Zm0,7.53a3.28,3.28,0,1,0-3.28-3.28A3.28,3.28,0,0,0,784.34,327.21Z" transform="translate(-6.15 -33.52)"/><text class="cls-4" transform="translate(139.44 284.55)">Á<tspan class="cls-5" x="10" y="0">r</tspan><tspan x="14.84" y="0">ea de</tspan><tspan class="cls-6" x="-15.94" y="15.18">c</tspan><tspan x="-8.9" y="15.18">ompe</tspan><tspan class="cls-7" x="27.2" y="15.18">t</tspan><tspan x="32.12" y="15.18">encia</tspan></text><text class="cls-8" transform="translate(313.15 197.79)">HABILI<tspan class="cls-9" x="71.26" y="0">D</tspan><tspan x="85.9" y="0">ADES</tspan></text><path class="cls-10" d="M454.61,180.15c11,12.43,17.54,28.1,17.54,45.14" transform="translate(-6.15 -33.52)"/><path class="cls-11" d="M472.15,225.64a.38.38,0,0,1-.41-.35c0-16.47-6-32-17.44-44.92a.33.33,0,0,1,.06-.5.45.45,0,0,1,.57.06c11.52,13,17.62,28.73,17.62,45.36A.37.37,0,0,1,472.15,225.64Z" transform="translate(-6.15 -33.52)"/><path class="cls-10" d="M433.3,163.17q3.17,1.76,6.14,3.75" transform="translate(-6.15 -33.52)"/><path class="cls-11" d="M439.44,167.27a.4.4,0,0,1-.24-.07c-2-1.32-4-2.57-6.11-3.72a.34.34,0,0,1-.13-.5.44.44,0,0,1,.55-.11c2.11,1.16,4.19,2.43,6.17,3.76a.34.34,0,0,1,.08.5A.43.43,0,0,1,439.44,167.27Z" transform="translate(-6.15 -33.52)"/><path class="cls-10" d="M350.73,161.14a91.32,91.32,0,0,1,74.26-2" transform="translate(-6.15 -33.52)"/><path class="cls-11" d="M350.73,161.5a.41.41,0,0,1-.35-.19.33.33,0,0,1,.16-.48,91.8,91.8,0,0,1,74.62-2,.34.34,0,0,1,.2.47.43.43,0,0,1-.54.17,90.95,90.95,0,0,0-73.9,2A.45.45,0,0,1,350.73,161.5Z" transform="translate(-6.15 -33.52)"/><path class="cls-10" d="M308,225.29c0-25,14.15-47.14,35.73-60.31" transform="translate(-6.15 -33.52)"/><path class="cls-11" d="M308,225.64a.37.37,0,0,1-.4-.35c0-24.23,13.42-46.88,35.9-60.6a.44.44,0,0,1,.56.09.34.34,0,0,1-.11.5c-22.26,13.58-35.55,36-35.55,60A.37.37,0,0,1,308,225.64Z" transform="translate(-6.15 -33.52)"/><path class="cls-12" d="M504.34,269.37a.69.69,0,0,1-.2,0,.6.6,0,0,1-.37-.78,122.45,122.45,0,1,0-231.1,0,.6.6,0,0,1-.37.77.61.61,0,0,1-.78-.37,123.67,123.67,0,1,1,233.4,0A.62.62,0,0,1,504.34,269.37Z" transform="translate(-6.15 -33.52)"/><path class="cls-12" d="M506.52,269.39a2.29,2.29,0,1,1-1.42-2.92A2.3,2.3,0,0,1,506.52,269.39Z" transform="translate(-6.15 -33.52)"/><path class="cls-12" d="M269.92,269.39a2.29,2.29,0,1,0,1.41-2.92A2.3,2.3,0,0,0,269.92,269.39Z" transform="translate(-6.15 -33.52)"/><text class="cls-13" transform="translate(529.31 294.46)">Habilidades</text></g><g id="_5._Diital_citizens" data-name="5. Diital citizens"><circle class="cls-14" cx="506.63" cy="187.52" r="45.11"/><circle class="cls-10" cx="512.78" cy="216.59" r="35.03" transform="translate(-9.12 392.52) rotate(-45)"/><circle class="cls-15" cx="506.63" cy="183.08" r="27.12"/><path class="cls-10" d="M512.56,233.42A16.38,16.38,0,1,1,528.94,217,16.4,16.4,0,0,1,512.56,233.42Zm0-30.39a14,14,0,1,0,14,14A14,14,0,0,0,512.56,203Z" transform="translate(-6.15 -33.52)"/><path class="cls-10" d="M522.55,212.79a10.82,10.82,0,0,0-5.78-5.76,10.38,10.38,0,0,0-4.21-.84,10.24,10.24,0,0,0-4.2.84,10.54,10.54,0,0,0-3.48,2.33,11.58,11.58,0,0,0-2.33,3.43,11.23,11.23,0,0,0-.84,4.23,11.11,11.11,0,0,0,.84,4.28,11.4,11.4,0,0,0,2.33,3.42,9.83,9.83,0,0,0,3.48,2.33,10.41,10.41,0,0,0,4.2.85,10.56,10.56,0,0,0,4.21-.85,10,10,0,0,0,3.47-2.33,10.5,10.5,0,0,0,2.31-3.42,10.61,10.61,0,0,0,.88-4.28A10.73,10.73,0,0,0,522.55,212.79ZM509.9,207.5a7.59,7.59,0,0,0-1.37,2,10.86,10.86,0,0,0-.68,1.69h-3.26A9.5,9.5,0,0,1,509.9,207.5Zm-6.07,4.76h3.69A17.57,17.57,0,0,0,507,216h-4.3A10.33,10.33,0,0,1,503.83,212.26Zm-1.2,4.87H507a17.83,17.83,0,0,0,.33,3.74h-4A10.63,10.63,0,0,1,502.63,217.13Zm1.29,4.86h3.64a12.88,12.88,0,0,0,1,2.61,7,7,0,0,0,1.37,2A10,10,0,0,1,503.92,222Zm8.1,4.92a3.45,3.45,0,0,1-1.17-.65,6.23,6.23,0,0,1-1.51-2.07,11.4,11.4,0,0,1-.81-2.2H512Zm0-6h-3.79a21.66,21.66,0,0,1-.36-3.74H512Zm0-4.87H507.9a18.09,18.09,0,0,1,.56-3.74H512Zm0-4.85H508.8c.17-.46.34-.84.54-1.26a6.51,6.51,0,0,1,1.51-2.06,3.14,3.14,0,0,1,1.17-.65ZM522.44,216h-4.26a24.74,24.74,0,0,0-.6-3.74h3.69A9.48,9.48,0,0,1,522.44,216Zm-1.87-4.85h-3.26c-.24-.56-.44-1.13-.71-1.69a8.16,8.16,0,0,0-1.39-2A9.91,9.91,0,0,1,520.57,211.15Zm-7.45-4a2.77,2.77,0,0,1,1.14.65,6.5,6.5,0,0,1,1.5,2.06,10.33,10.33,0,0,1,.58,1.26h-3.22Zm0,5.08h3.56a19.61,19.61,0,0,1,.52,3.74h-4.08Zm0,4.87h4.09a19.87,19.87,0,0,1-.33,3.74h-3.76Zm1.14,9.13a3,3,0,0,1-1.14.65V222h3.48a9.3,9.3,0,0,1-.84,2.2A6.22,6.22,0,0,1,514.26,226.26Zm1,.36a7.48,7.48,0,0,0,1.39-2,10.48,10.48,0,0,0,1-2.61h3.63A10.09,10.09,0,0,1,515.21,226.62Zm6.51-5.75h-3.89a20.09,20.09,0,0,0,.35-3.74h4.29A9.46,9.46,0,0,1,521.72,220.87Z" transform="translate(-6.15 -33.52)"/><text class="cls-16" transform="translate(546.92 180.21)">CIU<tspan class="cls-17" x="25.37" y="0">D</tspan><tspan x="35.64" y="0">A</tspan><tspan class="cls-17" x="46.7" y="0">D</tspan><tspan x="56.98" y="0">ANÍA </tspan><tspan x="0" y="16.8">DIGI</tspan><tspan class="cls-18" x="30.8" y="16.8">T</tspan><tspan x="38.61" y="16.8">AL</tspan></text></g><g id="_4._Cloud_computing" data-name="4. Cloud computing"><text class="cls-16" transform="translate(514.19 87.18)"><tspan class="cls-19">C</tspan><tspan x="10.05" y="0">OMPU</tspan><tspan class="cls-18" x="54.05" y="0">T</tspan><tspan class="cls-20" x="61.87" y="0">A</tspan><tspan x="72.32" y="0">CIÓN</tspan><tspan x="0" y="16.8">EN LA NUBE</tspan></text><circle class="cls-21" cx="473.02" cy="109" r="45.11"/><circle class="cls-10" cx="479.17" cy="138.07" r="35.03" transform="translate(36.57 345.75) rotate(-45)"/><circle class="cls-22" cx="473.02" cy="104.55" r="27.12"/><path class="cls-10" d="M475.73,137.8a.29.29,0,0,0-.28.26c-.46,3.6-1.61,7.46-3,7.46a.31.31,0,0,1,0-.62c1.11,0,2.23-4.89,2.47-6.75a.32.32,0,0,0-.06-.24.29.29,0,0,0-.22-.11h-2.42a.29.29,0,0,0-.28.25,6.13,6.13,0,0,1-5.89,5.31.31.31,0,0,1,0-.61,5.55,5.55,0,0,0,5.28-4.59.31.31,0,0,0-.05-.25.27.27,0,0,0-.21-.12,4.16,4.16,0,0,1,0-8.26.29.29,0,0,0,.26-.21,4.64,4.64,0,0,1,4.41-3.52,4.29,4.29,0,0,1,1.76.38.3.3,0,0,0,.32-.08,5.06,5.06,0,0,1,3.87-1.87,5.37,5.37,0,0,1,5.2,5.1.31.31,0,0,0,.23.27,4.06,4.06,0,0,1,3.12,4.06,4,4,0,0,1-3.62,4.13.29.29,0,0,0-.22.12.36.36,0,0,0,0,.25,5.57,5.57,0,0,0,5.29,4.59.31.31,0,0,1,0,.61,6.12,6.12,0,0,1-5.89-5.31.3.3,0,0,0-.28-.25h-2.42a.27.27,0,0,0-.22.11.33.33,0,0,0-.07.24c.24,1.86,1.37,6.75,2.47,6.75a.31.31,0,0,1,0,.62c-1.41,0-2.56-3.86-3-7.46a.29.29,0,0,0-.29-.26H479.4a.3.3,0,0,0-.29.31v9.26a.29.29,0,0,1-.28.31.3.3,0,0,1-.29-.31v-9.26a.29.29,0,0,0-.28-.31Z" transform="translate(-6.15 -33.52)"/><path class="cls-10" d="M494.91,148.64v-3.07h-2.16a.29.29,0,0,1-.24-.13l-.16-.25a.24.24,0,0,0-.1-.06h-1l-.1.06-.16.25a.28.28,0,0,1-.23.13h-.22v3.07Zm.57-3.15v3.23a.52.52,0,0,1-.5.54h-4.47a.52.52,0,0,1-.5-.54v-3.23a.51.51,0,0,1,.5-.53h.14l.08-.12a.73.73,0,0,1,.56-.32h1a.75.75,0,0,1,.57.32l.07.12H495A.51.51,0,0,1,495.48,145.49Z" transform="translate(-6.15 -33.52)"/><path class="cls-10" d="M485.33,147.5h-1a.18.18,0,0,0-.09.06l-.17.25a.28.28,0,0,1-.23.13h-.22V151H488v-3.07h-2.17a.29.29,0,0,1-.23-.13l-.16-.25A.17.17,0,0,0,485.33,147.5Zm2.74,4.12h-4.48a.51.51,0,0,1-.5-.53v-3.23a.52.52,0,0,1,.5-.54h.14l.08-.12a.72.72,0,0,1,.56-.31h1a.72.72,0,0,1,.57.32l.07.11h2.1a.52.52,0,0,1,.49.54v3.23A.51.51,0,0,1,488.07,151.62Z" transform="translate(-6.15 -33.52)"/><path class="cls-10" d="M476.94,149.93l-.16.24a.29.29,0,0,1-.24.13h-.22v3.08h4.34V150.3h-2.17a.28.28,0,0,1-.23-.13l-.16-.24h0a.13.13,0,0,0-.09-.06h-1A.13.13,0,0,0,476.94,149.93Zm-1.18.3a.52.52,0,0,1,.49-.54h.14l.08-.12a.75.75,0,0,1,.57-.32h1a.74.74,0,0,1,.56.32l.08.12h2.09a.52.52,0,0,1,.5.54v3.22a.52.52,0,0,1-.5.54h-4.48a.52.52,0,0,1-.49-.54Z" transform="translate(-6.15 -33.52)"/><path class="cls-10" d="M468.92,147.32h.14l.08-.11a.72.72,0,0,1,.57-.32h1a.72.72,0,0,1,.57.32l.07.11h2.1a.52.52,0,0,1,.49.54v3.23a.51.51,0,0,1-.49.53h-4.48a.51.51,0,0,1-.5-.53v-3.23A.52.52,0,0,1,468.92,147.32Zm.29.62H469V151h4.33v-3.07h-2.16a.29.29,0,0,1-.24-.13l-.16-.25h0a.15.15,0,0,0-.1-.06h-1a.24.24,0,0,0-.11.06l-.16.25A.28.28,0,0,1,469.21,147.94Z" transform="translate(-6.15 -33.52)"/><path class="cls-10" d="M475.64,138.3c-.25,1.78-1.25,7.72-3.55,7.72a.93.93,0,0,1,0-1.85c.42-.17,1.46-3.26,1.85-5.87h-1.86a6.68,6.68,0,0,1-6.4,5.56.92.92,0,0,1,0-1.84,5,5,0,0,0,4.65-3.77,4.8,4.8,0,0,1,.17-9.43,5.23,5.23,0,0,1,4.91-3.75,4.64,4.64,0,0,1,1.79.35,5.56,5.56,0,0,1,4.16-1.92,5.92,5.92,0,0,1,5.73,5.43,4.69,4.69,0,0,1,3.38,4.62,4.63,4.63,0,0,1-3.82,4.7A5,5,0,0,0,491.3,142a.92.92,0,0,1,0,1.84,6.68,6.68,0,0,1-6.4-5.56H483c.39,2.61,1.43,5.7,1.88,5.88h0a.88.88,0,0,1,.83.92.89.89,0,0,1-.85.92c-2.3,0-3.31-5.94-3.56-7.72h-2v8.95a.86.86,0,1,1-1.71,0V138.3Zm-3.55,7.1c1.41,0,2.56-3.86,3-7.45a.28.28,0,0,1,.28-.27h2.52a.3.3,0,0,1,.29.31v9.26a.29.29,0,0,0,.28.31.3.3,0,0,0,.29-.31V138a.3.3,0,0,1,.28-.31h2.53a.3.3,0,0,1,.28.27c.46,3.59,1.61,7.45,3,7.45a.29.29,0,0,0,.28-.3.3.3,0,0,0-.28-.31c-1.11,0-2.23-4.89-2.48-6.76a.36.36,0,0,1,.07-.24.29.29,0,0,1,.22-.11h2.42a.29.29,0,0,1,.28.26,6.13,6.13,0,0,0,5.89,5.31.31.31,0,0,0,0-.62,5.55,5.55,0,0,1-5.28-4.58.34.34,0,0,1,.05-.26.28.28,0,0,1,.21-.12,4,4,0,0,0,3.62-4.12,4.07,4.07,0,0,0-3.12-4.07.29.29,0,0,1-.23-.27,5.36,5.36,0,0,0-5.19-5.1,5.08,5.08,0,0,0-3.88,1.87.25.25,0,0,1-.31.08,4.31,4.31,0,0,0-1.76-.37A4.65,4.65,0,0,0,471,129.2a.3.3,0,0,1-.26.22,4.16,4.16,0,0,0,0,8.25.28.28,0,0,1,.21.12.34.34,0,0,1,0,.26,5.55,5.55,0,0,1-5.28,4.58.31.31,0,0,0,0,.62,6.13,6.13,0,0,0,5.89-5.31.3.3,0,0,1,.28-.26h2.42a.27.27,0,0,1,.22.11.36.36,0,0,1,.07.24c-.24,1.87-1.37,6.76-2.47,6.76a.3.3,0,0,0-.29.31A.29.29,0,0,0,472.09,145.4Z" transform="translate(-6.15 -33.52)"/><path class="cls-10" d="M466.4,145.57h-2.16a.29.29,0,0,1-.24-.13l-.16-.25-.1-.06h-.95a.24.24,0,0,0-.11.06l-.16.25a.28.28,0,0,1-.23.13h-.22v3.07h4.33Zm-2-.61h2.09a.51.51,0,0,1,.5.53v3.23a.52.52,0,0,1-.5.54H462a.52.52,0,0,1-.5-.54v-3.23a.51.51,0,0,1,.5-.53h.14l.08-.12a.75.75,0,0,1,.57-.32h.95a.75.75,0,0,1,.57.32Z" transform="translate(-6.15 -33.52)"/></g><g id="_2._Media_literacy" data-name="2. Media literacy"><circle class="cls-23" cx="301.35" cy="138.72" r="45.11" transform="translate(-36.3 92.36) rotate(-22.5)"/><circle class="cls-10" cx="295.19" cy="100.76" r="35.03"/><circle class="cls-24" cx="295.19" cy="100.76" r="27.12"/><path class="cls-10" d="M291.39,146c-.27,0-.55,0-.82,0a8.25,8.25,0,0,1-4.45-14.59l5.66-4.65a8.13,8.13,0,0,1,4.91-1.87,8.31,8.31,0,0,1,2.38.25,8.17,8.17,0,0,1,4.27,2.69.17.17,0,0,1,.06.06,9,9,0,0,1,.91,1.36,4.59,4.59,0,0,1-1.14,5.69l-.55.46a2.09,2.09,0,0,1-2.33.23l-.13-.08a1.3,1.3,0,0,1-.46-1.48,2.84,2.84,0,0,0,.11-1.5,2.75,2.75,0,0,0-.59-1.24l-.05,0a2.85,2.85,0,0,0-4-.34l-5.65,4.65a2.85,2.85,0,1,0,3.62,4.39h0l.18-.15a1,1,0,0,1,1.35.09,8.71,8.71,0,0,0,1.75,1.46,1.67,1.67,0,0,1,.79,1.34,1.69,1.69,0,0,1-.61,1.42A8.24,8.24,0,0,1,291.39,146ZM297,125.72h-.3a7.4,7.4,0,0,0-4.39,1.67L286.68,132a7.38,7.38,0,1,0,9.38,11.4.81.81,0,0,0,.32-.71.83.83,0,0,0-.38-.65,9.55,9.55,0,0,1-1.93-1.6.12.12,0,0,0-.16,0l-.18.15a3.72,3.72,0,0,1-4.72-5.75l5.65-4.65a3.74,3.74,0,0,1,5.18.45l.05.06a3.68,3.68,0,0,1,.64,3.59.42.42,0,0,0,.15.48,1.22,1.22,0,0,0,1.38-.11l.56-.46a3.72,3.72,0,0,0,.92-4.6,8,8,0,0,0-.82-1.23l0,0a7.33,7.33,0,0,0-3.83-2.41A7.73,7.73,0,0,0,297,125.72Z" transform="translate(-6.15 -33.52)"/><path class="cls-10" d="M301.29,142a7.92,7.92,0,0,1-2.06-.26,8.13,8.13,0,0,1-4.27-2.68l0-.06a8.15,8.15,0,0,1-.91-1.37,4.58,4.58,0,0,1,1.13-5.69l.56-.46a2.11,2.11,0,0,1,2.21-.28,1.07,1.07,0,0,1,.27.17,1.3,1.3,0,0,1,.43,1.45,2.91,2.91,0,0,0-.11,1.49,3,3,0,0,0,.6,1.25l0,0a2.87,2.87,0,0,0,4,.35l5.65-4.65a2.85,2.85,0,0,0-3.61-4.4l0,0a1.22,1.22,0,0,1-1.63-.12,8.85,8.85,0,0,0-1.62-1.31,1.7,1.7,0,0,1-.79-1.33,1.74,1.74,0,0,1,.62-1.43h0a8.26,8.26,0,1,1,10.49,12.75l-5.65,4.65a8.18,8.18,0,0,1-4.91,1.87ZM297,131.87a1.24,1.24,0,0,0-.78.28l-.55.46a3.71,3.71,0,0,0-.93,4.59l0,.05a7.59,7.59,0,0,0,.79,1.18l0,0a7.33,7.33,0,0,0,3.83,2.41,7.6,7.6,0,0,0,2.13.22,7.28,7.28,0,0,0,4.39-1.67l5.66-4.65a7.38,7.38,0,0,0-9.38-11.4l0,0a.85.85,0,0,0-.31.69.82.82,0,0,0,.39.65,10.23,10.23,0,0,1,1.77,1.44.36.36,0,0,0,.49,0l0,0A3.72,3.72,0,0,1,309.3,132l-5.65,4.65a3.73,3.73,0,0,1-5.18-.44l-.06-.06a3.76,3.76,0,0,1-.77-1.64,3.7,3.7,0,0,1,.13-1.95.41.41,0,0,0-.14-.47l-.09-.07A1.35,1.35,0,0,0,297,131.87Z" transform="translate(-6.15 -33.52)"/><text class="cls-16" transform="translate(95.17 83.3)">AL<tspan class="cls-25" x="19.73" y="0">F</tspan><tspan x="27.79" y="0">ABETIZ</tspan><tspan class="cls-26" x="81.68" y="0">A</tspan><tspan x="92.13" y="0">CIÓN EN </tspan><tspan x="-50.65" y="16.8">MEDI</tspan><tspan class="cls-27" x="-13.73" y="16.8">O</tspan><tspan x="-1.9" y="16.8">S DE </tspan><tspan class="cls-28" x="35.78" y="16.8">C</tspan><tspan x="45.84" y="16.8">OMUNIC</tspan><tspan class="cls-26" x="106.31" y="16.8">A</tspan><tspan x="116.77" y="16.8">CIÓN</tspan></text></g><g id="_1._Basic_tech" data-name="1. Basic tech"><circle class="cls-29" cx="267.82" cy="220.63" r="45.11" transform="translate(-83.72 220.49) rotate(-45)"/><circle class="cls-10" cx="267.82" cy="216.19" r="35.03" transform="translate(-10.27 393.66) rotate(-76.72)"/><circle class="cls-30" cx="261.67" cy="182.67" r="27.12"/><text class="cls-16" transform="translate(98.38 177.2)"><tspan class="cls-28">C</tspan><tspan x="10.05" y="0">ONOCIMIEN</tspan><tspan class="cls-31" x="96.71" y="0">T</tspan><tspan class="cls-32" x="105.25" y="0">O</tspan><tspan x="117.08" y="0">S </tspan><tspan x="-66.15" y="16.8">B</tspan><tspan class="cls-33" x="-56.04" y="16.8">Á</tspan><tspan x="-45.15" y="16.8">SI</tspan><tspan class="cls-28" x="-31.75" y="16.8">C</tspan><tspan class="cls-27" x="-21.7" y="16.8">O</tspan><tspan x="-9.87" y="16.8">S DE TECNO</tspan><tspan class="cls-34" x="79.56" y="16.8">L</tspan><tspan x="87.67" y="16.8">OGÍA</tspan></text><g class="cls-35"><g class="cls-36"><path class="cls-37" d="M277.66,222.33l1,1.06a.45.45,0,0,0,.69-.06,15.41,15.41,0,0,0,2.62-9.16,15.6,15.6,0,0,0-16.08-15.06,15.28,15.28,0,0,0-1.78.16,15.57,15.57,0,0,0-10.07,24.89.45.45,0,0,0,.7,0l.94-1.11a.45.45,0,0,0,0-.56,13.27,13.27,0,1,1,21.9-.72A.44.44,0,0,0,277.66,222.33Z" transform="translate(-6.15 -33.52)"/></g><g class="cls-38"><path class="cls-39" d="M274,218.3l1.21,1.26a.51.51,0,0,0,.83-.14,10.49,10.49,0,0,0,1-4.77,10.64,10.64,0,0,0-8.76-10.08,10.41,10.41,0,0,0-4.34.14,10.57,10.57,0,0,0-6.8,15.33.51.51,0,0,0,.84.09l1.13-1.34a.51.51,0,0,0,.07-.53,7.75,7.75,0,0,1-.7-3,8,8,0,1,1,15.94-.52,7.82,7.82,0,0,1-.5,3A.51.51,0,0,0,274,218.3Z" transform="translate(-6.15 -33.52)"/></g><path class="cls-40" d="M275.63,228.19l-.14-4.35c0-.3-.11-1.29-.95-1.56a1.46,1.46,0,0,0-1.1.09h-.1a1.29,1.29,0,0,0-1.08-1,1.75,1.75,0,0,0-1.35.32,1.44,1.44,0,0,0-1.56-.76,1.74,1.74,0,0,0-1.22.71L268,218c0-.73-.08-1.46-.08-2.19a1.55,1.55,0,0,0-1.53-1.36,1.65,1.65,0,0,0-1.19.55,1.75,1.75,0,0,0-.34,1.24v6.71c0,.15.07,3.57.07,3.57-.3-.28-.64-.61-.94-.92a4.9,4.9,0,0,0-2.78-1.27,1.44,1.44,0,0,0-1,.21l-.2.19a1.4,1.4,0,0,0-.39,1.61,1.74,1.74,0,0,0,.6.49,4,4,0,0,1,1.26.88c.68.82,2.27,2.66,3.25,3.64.2.11.62.51.82.61a8.05,8.05,0,0,1,1.28.88,5.5,5.5,0,0,0,.92.52,6.09,6.09,0,0,0,3.11.67c1.32,0,2.52,0,3.37-.81h.05l0-.06a4.35,4.35,0,0,0,1.35-3.28C275.67,229.55,275.64,228.4,275.63,228.19Z" transform="translate(-6.15 -33.52)"/><path class="cls-41" d="M266.3,211.08a3.68,3.68,0,0,0-3.56,3.79,3.72,3.72,0,0,0,1.16,2.71V216a2.5,2.5,0,0,1,4.94-.59,2.8,2.8,0,0,1,.07.59v1.61a3.8,3.8,0,0,0-2.62-6.56Z" transform="translate(-6.15 -33.52)"/></g></g><g id="_3._Computational_thinking" data-name="3. Computational thinking"><circle class="cls-42" cx="386.37" cy="72.8" r="45.11"/><circle class="cls-10" cx="392.53" cy="101.87" r="35.03" transform="translate(-15.26 124.45) rotate(-22.5)"/><circle class="cls-43" cx="386.37" cy="68.35" r="27.12"/><path class="cls-10" d="M406.45,113.64V93.58a.37.37,0,0,0-.37-.37h-2.23v-.52h1.7v-2h.21a1.83,1.83,0,0,1,1.82,1.83v20.79a1.81,1.81,0,0,1-1.11,1.67l-.39-.93A.37.37,0,0,0,406.45,113.64Z" transform="translate(-6.15 -33.52)"/><path class="cls-10" d="M403.31,92.69V91h-1.7v1.7Zm-3.94,0h1.71V91h-1.71Zm-18.08,22.4a1.82,1.82,0,0,1-1.82-1.82V92.48a1.82,1.82,0,0,1,1.82-1.83h24.26V91h-1.7v2.22H381a.37.37,0,0,0-.37.37v20.06a.37.37,0,0,0,.37.37h25.11l.39.93a1.71,1.71,0,0,1-.71.15Z" transform="translate(-6.15 -33.52)"/><rect class="cls-10" x="397.33" y="57.34" width="1.7" height="1.7"/><rect class="cls-10" x="395.1" y="57.34" width="1.7" height="1.7"/><rect class="cls-10" x="392.86" y="57.34" width="1.7" height="1.7"/><path class="cls-10" d="M398.47,107.34a.4.4,0,0,0,.22-.08l5-3.84a.34.34,0,0,0,.14-.28.37.37,0,0,0-.14-.29l-5-3.83a.36.36,0,0,0-.51.06.37.37,0,0,0,.07.51l4.21,3.26a.34.34,0,0,1,.15.29.37.37,0,0,1-.14.29l-4.22,3.26a.37.37,0,0,0-.14.24.39.39,0,0,0,.07.26A.38.38,0,0,0,398.47,107.34Zm-.87.31a1.11,1.11,0,0,1-.22-.82,1.08,1.08,0,0,1,.42-.73l3.83-3-3.83-3a1.11,1.11,0,0,1-.2-1.55,1.1,1.1,0,0,1,1.54-.2l5,3.83a1.12,1.12,0,0,1,.43.88,1.1,1.1,0,0,1-.43.87l-5,3.84a1.14,1.14,0,0,1-.67.22A1.09,1.09,0,0,1,397.6,107.65Z" transform="translate(-6.15 -33.52)"/><path class="cls-10" d="M392.17,108.07a1.24,1.24,0,0,1-.27,0,1.1,1.1,0,0,1-.79-1.34l2-7.67a1.1,1.1,0,0,1,2.14.55l-2,7.67A1.1,1.1,0,0,1,392.17,108.07Zm0-.73a.39.39,0,0,0,.36-.27l2-7.68a.37.37,0,0,0-.26-.44h-.09a.37.37,0,0,0-.35.27l-2,7.67a.36.36,0,0,0,.27.44Z" transform="translate(-6.15 -33.52)"/><path class="cls-10" d="M387.18,107.85l-5-3.84a1.09,1.09,0,0,1-.43-.87,1.1,1.1,0,0,1,.43-.87l5-3.84a1.11,1.11,0,1,1,1.35,1.75l-3.84,3,3.84,3a1.11,1.11,0,0,1,.2,1.55,1.13,1.13,0,0,1-1.55.2Zm-4.65-4.71a.34.34,0,0,0,.14.28l5,3.84a.35.35,0,0,0,.21.08.36.36,0,0,0,.29-.15.31.31,0,0,0,.07-.26.36.36,0,0,0-.13-.24l-4.22-3.26a.37.37,0,0,1-.14-.29.36.36,0,0,1,.14-.29l4.22-3.26a.36.36,0,0,0-.23-.65.4.4,0,0,0-.22.08l-5,3.83A.37.37,0,0,0,382.53,103.14Z" transform="translate(-6.15 -33.52)"/><path class="cls-10" d="M405.35,93.81H381v19.32h24.37ZM380.24,113.5V93.44a.37.37,0,0,1,.37-.37h25.11a.37.37,0,0,1,.37.37V113.5a.37.37,0,0,1-.37.37H380.61A.37.37,0,0,1,380.24,113.5Z" transform="translate(-6.15 -33.52)"/><path class="cls-10" d="M380.93,90.51a1.83,1.83,0,0,0-1.83,1.83v20.79a1.83,1.83,0,0,0,1.83,1.82H405.4a1.87,1.87,0,0,0,.71-.14,1.84,1.84,0,0,0,1.11-1.68V92.34a1.83,1.83,0,0,0-1.82-1.83H380.93Zm-2.57,1.83a2.58,2.58,0,0,1,2.57-2.57H405.4A2.57,2.57,0,0,1,408,92.34v20.79a2.56,2.56,0,0,1-2.56,2.56H380.93a2.57,2.57,0,0,1-2.57-2.56Z" transform="translate(-6.15 -33.52)"/><text class="cls-16" transform="translate(333.48 11.9)">PEN<tspan class="cls-44" x="29.79" y="0">S</tspan><tspan x="38.54" y="0">AMIEN</tspan><tspan class="cls-45" x="86.63" y="0">T</tspan><tspan x="95.17" y="0">O </tspan><tspan class="cls-19" x="-11.35" y="16.8">C</tspan><tspan x="-1.3" y="16.8">OMPU</tspan><tspan class="cls-18" x="42.7" y="16.8">T</tspan><tspan class="cls-20" x="50.51" y="16.8">A</tspan><tspan x="60.97" y="16.8">CIONAL</tspan></text></g></g></svg>